<svg viewBox="0 0 100 100" xmlns="http://www.w3.org/2000/svg" class="w-full h-full block"><defs><linearGradient id="hairGrad" x1="0" y1="0" x2="0" y2="100" gradientUnits="userSpaceOnUse"><stop offset="25%" stop-color="#F8FAFC"></stop><stop offset="60%" stop-color="#FFEDD5"></stop><stop offset="95%" stop-color="#EA580C"></stop></linearGradient></defs><rect width="100" height="100" fill="#ffffff"></rect><g><path d="M 20 25 Q 50 0 80 25 L 76 46 L 86 80 Q 50 90 14 80 L 24 46 Z" fill="url(#hairGrad)" transform="translate(0 0) translate(50 50) scale(0.83) rotate(0) translate(-50 -50)"></path><path d="M 35 25 L 4 35 L 26 55 Z" fill="url(#hairGrad)" transform="translate(0 3) translate(28 42) scale(0.87) rotate(-30) translate(-28 -42)"></path><path d="M 65 25 L 96 35 L 74 55 Z" fill="url(#hairGrad)" transform="translate(0 3) translate(72 42) scale(0.82) rotate(30) translate(-72 -42)"></path><circle cx="50" cy="56" r="23" fill="#FFFFFF"></circle><path d="M 27 30 Q 50 23 73 30 L 76 68 Q 66 58 63 46 L 56 46 L 50 43 L 44 46 L 37 46 Q 34 58 24 68 Z" fill="url(#hairGrad)"></path><circle cx="41" cy="59" r="3.5" fill="#0EA5E9"></circle><circle cx="59" cy="59" r="3.5" fill="#0EA5E9"></circle></g></svg>